#!OML:ASF F:\VICON\USERDATA\INSTALL\rory3\rory3.ASF
:FULLY-SPECIFIED
:DEGREES
143
root 4.26782 17.6332 1.08334 17.7464 3.03605 -4.084
lowerback -6.00399 -0.0167183 4.66345
upperback -10.0184 0.11756 3.57581
thorax -7.16131 -0.117639 1.15637
lowerneck -5.19815 14.7834 10.6711
upperneck 24.0736 18.8674 1.95069
head 9.3017 10.012 0.916781
rclavicle 2.78299e-015 -1.59028e-015
rhumerus -4.4786 -17.0401 6.769
rradius 127.146
rwrist -54.9955
rhand -4.78571 -45.9753
rfingers 7.12502
rthumb 20.9993 -74.8584
lclavicle 2.78299e-015 -1.59028e-015
lhumerus 28.8172 23.1769 -10.7571
lradius 48.2135
lwrist 53.0051
lhand -25.0236 -17.6974
lfingers 7.12502
lthumb 1.48882 12.2771
rfemur -13.3195 2.46184 -0.287942
rtibia 18.7267
rfoot -3.04693 -29.7622
rtoes 26.037
lfemur -22.066 -1.40859 -24.4737
ltibia 20.2734
lfoot -14.296 6.99656
ltoes 9.89535
144
root 4.26761 17.6283 1.07783 17.6885 3.0615 -4.15939
lowerback -6.00847 -0.0189822 4.74472
upperback -9.92213 0.108377 3.59391
thorax -7.05382 -0.125247 1.12801
lowerneck -5.33731 14.811 10.5305
upperneck 24.2372 18.8954 2.02985
head 9.36149 10.0202 0.982588
rclavicle 8.89561e-015 -2.62396e-014
rhumerus -4.41999 -16.9991 6.60874
rradius 127.25
rwrist -55.1489
rhand -3.70274 -46.1032
rfingers 7.12502
rthumb 22.0394 -74.8673
lclavicle 8.89561e-015 -2.62396e-014
lhumerus 28.6033 23.0897 -10.8505
lradius 48.7641
lwrist 53.4724
lhand -25.306 -18.0064
lfingers 7.12502
lthumb 1.21601 11.9699
rfemur -13.3828 2.37006 -0.204689
rtibia 18.8871
rfoot -1.87483 -29.7353
rtoes 24.109
lfemur -22.0955 -1.36144 -24.4008
ltibia 20.449
lfoot -14.3979 6.93877
ltoes 9.92232
145
root 4.2617 17.6287 1.07416 17.6747 2.97415 -4.19243
lowerback -6.039 0.0171893 4.66232
upperback -9.86847 0.15285 3.60306
thorax -6.97567 -0.0954564 1.18179
lowerneck -5.83094 14.7719 10.3345
upperneck 24.7496 18.7861 2.20675
head 9.58719 9.96636 1.11951
rclavicle 1.799e-014 -2.3059e-014
rhumerus -4.36939 -16.8018 6.48145
rradius 127.305
rwrist -55.1494
rhand -3.67106 -45.7721
rfingers 7.12502
rthumb 22.0698 -74.5327
lclavicle 1.799e-014 -2.3059e-014
lhumerus 28.6308 23.0477 -10.7274
lradius 49.1741
lwrist 53.5577
lhand -26.0846 -18.3715
lfingers 7.12502
lthumb 0.464057 11.6078
rfemur -13.4848 2.52969 -0.184089
rtibia 18.9931
rfoot -1.16889 -29.6692
rtoes 22.6253
lfemur -22.2336 -1.23421 -24.3699
ltibia 20.6153
lfoot -14.3749 6.91758
ltoes 9.62386
146
root 4.25889 17.6307 1.07136 17.5866 2.86018 -4.32263
lowerback -5.96636 0.0915486 4.74352
upperback -9.86443 0.255532 3.58239
thorax -7.01192 -0.0511941 1.11507
lowerneck -6.05364 14.6132 10.2549
upperneck 25.1469 18.5383 2.30512
head 9.74063 9.85403 1.1702
rclavicle 4.67144e-015 -1.51076e-014
rhumerus -4.33113 -16.5653 6.28969
rradius 127.365
rwrist -55.1691
rhand -4.02091 -45.6048
rfingers 7.12502
rthumb 21.7339 -74.4046
lclavicle 4.67144e-015 -1.51076e-014
lhumerus 28.801 22.9486 -10.5283
lradius 49.5439
lwrist 53.6742
lhand -25.882 -18.3483
lfingers 7.12502
lthumb 0.659682 11.6304
rfemur -13.5488 2.74225 -0.070469
rtibia 19.1504
rfoot -0.495844 -29.5116
rtoes 20.8523
lfemur -22.2626 -1.0612 -24.2567
ltibia 20.7682
lfoot -14.4217 6.93431
ltoes 9.3031
147
root 4.26161 17.6269 1.07586 17.3201 2.70459 -4.42761
lowerback -5.7887 0.173298 4.88077
upperback -9.8258 0.371724 3.52803
thorax -7.06949 -0.00579498 0.981139
lowerneck -5.97886 14.456 10.2435
upperneck 25.4624 18.3006 2.44978
head 9.81551 9.76187 1.19819
rclavicle 8.69683e-015 -3.89618e-014
rhumerus -4.35381 -16.1286 6.11595
rradius 127.431
rwrist -54.8855
rhand -4.45276 -45.6747
rfingers 7.12502
rthumb 21.3191 -74.522
lclavicle 8.69683e-015 -3.89618e-014
lhumerus 28.9699 22.8644 -10.3186
lradius 49.9048
lwrist 53.9773
lhand -25.1767 -18.2066
lfingers 7.12502
lthumb 1.34087 11.7689
rfemur -13.4128 2.82187 0.00782079
rtibia 19.3215
rfoot 0.430345 -29.2981
rtoes 19.1009
lfemur -21.9909 -0.872662 -24.2027
ltibia 20.9071
lfoot -14.6856 6.95909
ltoes 9.57557
148
root 4.25821 17.622 1.06479 17.4816 2.99792 -4.26473
lowerback -5.90389 0.0942975 4.74365
upperback -9.89329 0.259703 3.45385
thorax -7.07776 -0.0554582 0.980418
lowerneck -5.56459 14.3263 10.4206
upperneck 25.3647 18.1803 2.27118
head 9.73812 9.70872 1.06316
rclavicle -2.6339e-015 1.90833e-014
rhumerus -4.39414 -15.7421 5.91052
rradius 127.476
rwrist -54.3912
rhand -4.62094 -45.495
rfingers 7.12502
rthumb 21.1576 -74.3605
lclavicle -2.6339e-015 1.90833e-014
lhumerus 29.0975 22.7985 -10.188
lradius 50.2781
lwrist 54.129
lhand -25.2026 -18.2416
lfingers 7.12502
lthumb 1.31591 11.7341
rfemur -13.5681 2.46434 -0.099697
rtibia 19.5293
rfoot 2.48411 -29.0866
rtoes 15.2603
lfemur -22.2813 -1.0213 -24.3227
ltibia 21.0197
lfoot -14.6982 6.77151
ltoes 9.74043
